# AST/ASF file generated using VICON BodyLanguage
# -----------------------------------------------
:version 1.10
:name VICON
:units
  mass 1.0
  length 0.45
  angle deg
:documentation
   .ast/.asf automatically generated from VICON data using
   VICON BodyBuilder and BodyLanguage model FoxedUp or BRILLIANT.MOD
:root
   order TX TY TZ RX RY RZ
   axis XYZ
   position 0 0 0  
   orientation 0 0 0 
:bonedata
  begin
     id 1 
     name lhipjoint
     direction 0.561001 -0.76473 0.316963 
     length 2.4722 
     axis 0 0 0  XYZ
  end
  begin
     id 2 
     name lfemur
     direction 0.34202 -0.939693 0  
     length 7.59403  
     axis 0 0 20  XYZ
    dof rx ry rz
    limits (-160.0 20.0)
           (-70.0 70.0)
           (-60.0 70.0)
  end
  begin
     id 3 
     name ltibia
     direction 0.34202 -0.939693 0   
     length 7.89655   
     axis 0 0 20   XYZ
    dof rx
    limits (-10.0 170.0)
  end
  begin
     id 4 
     name lfoot
     direction 0.061296 -0.168409 0.98381   
     length 2.73287   
     axis -90 7.62852e-016 20   XYZ
    dof rx rz
    limits (-45.0 90.0)
           (-70.0 20.0)
  end
  begin
     id 5 
     name ltoes
     direction 1.53547e-011 -4.21984e-011 1   
     length 1.37057   
     axis -90 7.62852e-016 20   XYZ
    dof rx
    limits (-90.0 20.0)
  end
  begin
     id 6 
     name rhipjoint
     direction -0.559611 -0.765599 0.317323   
     length 2.46939  
     axis 0 0 0  XYZ 
  end
  begin
     id 7 
     name rfemur
     direction -0.34202 -0.939693 0   
     length 7.53712   
     axis 0 0 -20   XYZ
    dof rx ry rz
    limits (-160.0 20.0)
           (-70.0 70.0)
           (-70.0 60.0)
  end
  begin
     id 8 
     name rtibia
     direction -0.34202 -0.939693 0   
     length 8.12549   
     axis 0 0 -20   XYZ
    dof rx
    limits (-10.0 170.0)
 end
 begin
     id 9 
     name rfoot
     direction -0.066984 -0.184037 0.980634   
     length 2.67541  
     axis -90 -7.62852e-016 -20   XYZ
    dof rx rz
    limits (-45.0 90.0)
           (-20.0 70.0)
  end
  begin
     id 10 
     name rtoes
     direction -1.53549e-011 -4.21786e-011 1   
     length 1.34085   
     axis -90 -7.62852e-016 -20   XYZ
    dof rx
    limits (-90.0 20.0)
  end
  begin
     id 11 
     name lowerback
     direction -0.0522728 0.992594 -0.109658   
     length 2.05633   
     axis 0 0 0   XYZ
    dof rx ry rz
    limits (-20.0 45.0)
           (-30.0 30.0)
           (-30.0 30.0)
  end
  begin
     id 12 
     name upperback
     direction 0.00589338 0.999977 0.00335704   
     length 2.05845   
     axis 0 0 0   XYZ
    dof rx ry rz
    limits (-20.0 45.0)
           (-30.0 30.0)
           (-30.0 30.0)
  end
  begin
     id 13 
     name thorax
     direction 0.0292928 0.998059 0.0549487   
     length 2.09281   
     axis 0 0 0   XYZ
    dof rx ry rz
    limits (-20.0 45.0)
           (-30.0 30.0)
           (-30.0 30.0)
  end
  begin
     id 14 
     name lowerneck
     direction 0.0356368 0.980775 0.191858   
     length 1.84767   
     axis 0 0 0   XYZ
    dof rx ry rz
    limits (-20.0 45.0)
           (-30.0 30.0)
           (-30.0 30.0)
  end
  begin
     id 15 
     name upperneck
     direction -0.0227605 0.98931 -0.14404   
     length 1.89582   
     axis 0 0 0   XYZ
    dof rx ry rz
    limits (-20.0 45.0)
           (-30.0 30.0)
           (-30.0 30.0)
  end
  begin
     id 16
     name head
     direction -0.00932985 0.997511 -0.0698904  
     length 1.90213  
     axis 0 0 0   XYZ
    dof rx ry rz
    limits (-20.0 45.0)
           (-30.0 30.0)
           (-30.0 30.0)
  end
  begin
     id 17 
     name lclavicle
     direction 0.873442 0.479511 0.0846686  
     length 3.41193  
     axis 0 0 0   XYZ
    dof ry rz
    limits (-20.0 10.0)
           (0.0 20.0)
  end
  begin
     id 18 
     name lhumerus
     direction 1 -4.4897e-011 -5.62117e-018   
     length 5.59864   
     axis 180 -30 -90   XYZ
    dof rx ry rz
    limits (-60.0 90.0)
           (-90.0 90.0)
           (-90.0 90.0)
  end
  begin
     id 19
     name lradius
     direction 1 -4.48966e-011 -6.26295e-027   
     length 3.59542   
     axis 180 -30 -90   XYZ
    dof rx
    limits (-10.0 170.0)
  end
  begin
     id 20
     name lwrist
     direction 1 -4.48947e-011 -1.74096e-026   
     length 1.79771   
     axis 1.04567e-014 90 90   XYZ
    dof ry
    limits (-180.0 0.0)
 end
  begin
     id 21 
     name lhand
     direction 1 -4.49085e-011 -3.48469e-026   
     length 0.572014   
     axis 2.22196e-014 90 90   XYZ
    dof rx rz
    limits (-90.0 90.0)
           (-45.0 45.0)
  end
  begin
     id 22 
     name lfingers
     direction 1 -4.48884e-011 -6.96135e-026   
     length 0.461173   
     axis 4.44383e-014 90 90   XYZ
    dof rx
    limits (0.0 90.0)
  end
  begin
     id 23
     name lthumb
     direction 0.707107 -6.34976e-011 0.707107   
     length 0.662154   
     axis -90 45 -5.4397e-014   XYZ
    dof rx rz
    limits (-45.0 45.0)
           (-45.0 45.0)
  end
  begin
     id 24 
     name rclavicle
     direction -0.890242 0.443271 0.104786   
     length 3.46753  
     axis 0 0 0   XYZ 
    dof ry rz
    limits (-10.0 20.0)
           (-20.0 0.0)
  end
  begin
     id 25 
     name rhumerus
     direction -1 -4.48963e-011 -5.41723e-018  
     length 5.8094   
     axis 180 30 90   XYZ
    dof rx ry rz
    limits (-90.0 60.0)
           (-90.0 90.0)
           (-90.0 90.0)
  end
  begin
     id 26 
     name rradius
     direction -1 -4.48958e-011 -6.51059e-027   
     length 3.66953   
     axis 180 30 90   XYZ
    dof rx
    limits (-10.0 170.0)
  end
  begin
     id 27 
     name rwrist
     direction -1 -4.48975e-011 -1.74124e-026   
     length 1.83476   
     axis 1.04567e-014 -90 -90   XYZ
    dof ry
    limits (-180.0 0.0)
  end
  begin
     id 28
     name rhand
     direction -1 -4.49013e-011 -3.48326e-026   
     length 0.57843   
     axis 2.22196e-014 -90 -90   XYZ
    dof rx rz
    limits (-90.0 90.0)
           (-45.0 45.0)
  end
  begin
     id 29
     name rfingers
     direction -1 -4.49023e-011 -6.9669e-026   
     length 0.466345   
     axis 4.44383e-014 -90 -90   XYZ
    dof rx
    limits (0.0 90.0)
  end
  begin
     id 30
     name rthumb
     direction -0.707107 -6.34926e-011 0.707107   
     length 0.669581   
     axis -90 -45 5.4397e-014   XYZ
    dof rx rz
    limits (-45.0 45.0)
           (-45.0 45.0)
  end
:hierarchy
  begin
    root lhipjoint rhipjoint lowerback
    lhipjoint lfemur
    lfemur ltibia
    ltibia lfoot
    lfoot ltoes
    rhipjoint rfemur
    rfemur rtibia
    rtibia rfoot
    rfoot rtoes
    lowerback upperback
    upperback thorax
    thorax lowerneck lclavicle rclavicle
    lowerneck upperneck
    upperneck head
    lclavicle lhumerus
    lhumerus lradius
    lradius lwrist
    lwrist lhand lthumb
    lhand lfingers
    rclavicle rhumerus
    rhumerus rradius
    rradius rwrist
    rwrist rhand rthumb
    rhand rfingers
  end

#!OML:ASF H:\SkateBoarding\Project 1\Capture day 1\Session 1\Skater.ASF
:FULLY-SPECIFIED
:DEGREES
192
root 11.2835 19.4988 26.0893 -4.22344 49.8376 -15.3398
lowerback 10.7959 1.01104 -6.43158
upperback -0.470866 0.499005 -0.463592
thorax -6.6278 0.46187 3.0542
lowerneck -10.4161 0.944258 4.90429
upperneck 44.6461 3.62602 -4.00426
head 18.9275 2.16018 -2.05059
rclavicle 4.21423e-014 2.06736e-014
rhumerus -18.8101 -3.07441 -94.7217
rradius 29.9871
rwrist -0.75939
rhand -24.1635 -7.94987
rfingers 7.12502
rthumb 2.3195 -37.917
lclavicle 4.21423e-014 2.06736e-014
lhumerus -17.7713 -2.88956 80.5994
lradius 28.9803
lwrist 17.9165
lhand -20.1064 11.1132
lfingers 7.12502
lthumb 6.23708 41.0014
rfemur -24.3997 -1.21436 28.9852
rtibia 29.1441
rfoot -16.7369 6.05028
rtoes -3.73722
lfemur -23.7718 -23.2828 2.76798
ltibia 38.5611
lfoot -49.4672 22.8228
ltoes -18.194
193
root 11.1915 19.4951 26.255 -4.23042 49.7123 -15.3434
lowerback 10.7766 1.00852 -6.44762
upperback -0.472176 0.495357 -0.457603
thorax -6.6182 0.460467 3.07029
lowerneck -10.3931 0.869085 4.76047
upperneck 44.6374 3.64957 -4.22578
head 18.9201 2.11557 -2.1286
rclavicle -2.38542e-014 1.43125e-014
rhumerus -18.7978 -3.0572 -94.699
rradius 29.9646
rwrist -0.742953
rhand -24.1135 -7.99508
rfingers 7.12502
rthumb 2.36774 -37.9617
lclavicle -2.38542e-014 1.43125e-014
lhumerus -17.7091 -2.9531 80.5983
lradius 29.0908
lwrist 18.0346
lhand -20.2172 11.1406
lfingers 7.12502
lthumb 6.13012 41.0319
rfemur -24.3714 -1.23597 29.0264
rtibia 29.1496
rfoot -16.7966 6.10283
rtoes -3.74054
lfemur -23.7813 -23.3411 2.80506
ltibia 38.5964
lfoot -49.4832 22.8817
ltoes -18.2438
194
root 11.0994 19.4913 26.4198 -4.23471 49.5931 -15.3424
lowerback 10.7594 1.00308 -6.46445
upperback -0.473589 0.487616 -0.451023
thorax -6.6094 0.457127 3.08811
lowerneck -10.3716 0.79377 4.61837
upperneck 44.6308 3.6774 -4.4577
head 18.9155 2.07174 -2.21129
rclavicle -6.12257e-014 -3.18055e-015
rhumerus -18.7875 -3.03787 -94.6717
rradius 29.9488
rwrist -0.733586
rhand -24.0524 -8.04842
rfingers 7.12502
rthumb 2.42673 -38.0144
lclavicle -6.12257e-014 -3.18055e-015
lhumerus -17.654 -3.00817 80.5942
lradius 29.2011
lwrist 18.1456
lhand -20.3346 11.1233
lfingers 7.12502
lthumb 6.01681 41.0178
rfemur -24.3397 -1.2661 29.067
rtibia 29.1522
rfoot -16.8576 6.16426
rtoes -3.7463
lfemur -23.7894 -23.4057 2.84167
ltibia 38.6304
lfoot -49.5087 22.9339
ltoes -18.2812
195
root 11.0072 19.4875 26.584 -4.24056 49.4759 -15.3409
lowerback 10.7423 0.991923 -6.48301
upperback -0.475059 0.472241 -0.441333
thorax -6.60003 0.450152 3.11147
lowerneck -10.348 0.72303 4.47541
upperneck 44.6271 3.71766 -4.69899
head 18.9141 2.03167 -2.29627
rclavicle 8.98507e-014 -4.45278e-014
rhumerus -18.7806 -3.01217 -94.6443
rradius 29.939
rwrist -0.726393
rhand -23.984 -8.11462
rfingers 7.12502
rthumb 2.49285 -38.0798
lclavicle 8.98507e-014 -4.45278e-014
lhumerus -17.61 -3.04655 80.5835
lradius 29.3075
lwrist 18.2481
lhand -20.4532 11.0575
lfingers 7.12502
lthumb 5.90224 40.9553
rfemur -24.301 -1.2997 29.1112
rtibia 29.1499
rfoot -16.9195 6.23187
rtoes -3.75991
lfemur -23.7919 -23.4733 2.88042
ltibia 38.6636
lfoot -49.5435 22.975
ltoes -18.303
196
root 10.915 19.4837 26.7477 -4.24589 49.3573 -15.3381
lowerback 10.7219 0.979021 -6.50297
upperback -0.477098 0.454672 -0.430527
thorax -6.58917 0.442136 3.13717
lowerneck -10.3246 0.655066 4.34179
upperneck 44.6277 3.76511 -4.95091
head 18.9175 1.99491 -2.38708
rclavicle -7.95139e-016 -1.90833e-014
rhumerus -18.7786 -2.99934 -94.6132
rradius 29.9364
rwrist -0.70893
rhand -23.9103 -8.1919
rfingers 7.12502
rthumb 2.56401 -38.1562
lclavicle -7.95139e-016 -1.90833e-014
lhumerus -17.5754 -3.08188 80.5706
lradius 29.4136
lwrist 18.3559
lhand -20.5875 10.9794
lfingers 7.12502
lthumb 5.77261 40.8808
rfemur -24.2567 -1.33939 29.1603
rtibia 29.1425
rfoot -16.9776 6.31076
rtoes -3.75861
lfemur -23.7891 -23.541 2.92178
ltibia 38.6972
lfoot -49.5867 23.009
ltoes -18.3117
197
root 10.8229 19.4799 26.911 -4.24798 49.2335 -15.3294
lowerback 10.6971 0.967039 -6.52546
upperback -0.479967 0.438198 -0.421618
thorax -6.57684 0.434677 3.16209
lowerneck -10.2975 0.588028 4.2096
upperneck 44.6312 3.81482 -5.20345
head 18.9224 1.95948 -2.47823
rclavicle -7.51406e-014 -1.90833e-014
rhumerus -18.7829 -3.00266 -94.5797
rradius 29.9415
rwrist -0.681929
rhand -23.8217 -8.27812
rfingers 7.12502
rthumb 2.64951 -38.2414
lclavicle -7.51406e-014 -1.90833e-014
lhumerus -17.5513 -3.12796 80.5531
lradius 29.5211
lwrist 18.4723
lhand -20.729 10.8968
lfingers 7.12502
lthumb 5.63599 40.8019
rfemur -24.2058 -1.38205 29.2117
rtibia 29.1315
rfoot -17.031 6.39944
rtoes -3.75163
lfemur -23.7771 -23.6088 2.96165
ltibia 38.7314
lfoot -49.6432 23.0361
ltoes -18.3074
